<svg id="OBJECTS" xmlns="http://www.w3.org/2000/svg" viewBox="0 0 97.04 93.74"><defs><style>.cls-1{fill:#2a002e;}.cls-2{fill:#3a0244;}</style></defs><title>Logo (2)</title><rect class="cls-1" x="39.45" y="59.66" width="26.73" height="34.08" rx="3.26"/><path class="cls-2" d="M330.93,143.81a15,15,0,0,0-21,.17l-42.62,42.63v40.65a5.9,5.9,0,0,0,5.9,5.9h7a5.9,5.9,0,0,0,5.9-5.9V197l49.07-49.08Z" transform="translate(-267.29 -139.42)"/><path class="cls-1" d="M298.05,155.85c9.9-5.54,24.14,4.24,24.14,4.24l17.59,15.42a18,18,0,0,0,24.55-.8h0l-33.41-31.25a15,15,0,0,0-20.84.35Z" transform="translate(-267.29 -139.42)"/></svg>